<svg width="512" height="512" viewBox="25 25 462 462" xmlns="http://www.w3.org/2000/svg"><g fill="none"><path d="M257 326c-38.66 0-70-31.34-70-70s31.34-70 70-70 70 31.34 70 70-31.34 70-70 70z" fill="#FFBD00"/><path d="M257 314c32.033 0 58-25.967 58-58s-25.967-58-58-58-58 25.967-58 58 25.967 58 58 58zm0 12c-38.66 0-70-31.34-70-70s31.34-70 70-70 70 31.34 70 70-31.34 70-70 70zm7-175.714a8 8 0 1 1-16 0v-44.074a8 8 0 1 1 16 0v44.074zm0 253.603a8 8 0 1 1-16 0v-44.075a8 8 0 1 1 16 0v44.075zm-76.74-228.443a8 8 0 1 1-11.314 11.313l-31.166-31.165a8 8 0 1 1 11.314-11.314l31.165 31.166zM366.584 354.77a8 8 0 1 1-11.314 11.314l-31.165-31.166a8 8 0 1 1 11.313-11.313l31.166 31.165zm-30.53-168.01a8 8 0 1 1-11.313-11.314l31.165-31.166a8 8 0 1 1 11.314 11.314l-31.166 31.165zM156.73 366.084a8 8 0 1 1-11.314-11.314l31.166-31.165a8 8 0 1 1 11.313 11.313l-31.165 31.166zM361.714 263a8 8 0 1 1 0-16h44.074a8 8 0 1 1 0 16h-44.074zm-254 0a8 8 0 1 1 0-16h44.074a8 8 0 1 1 0 16h-44.074z" fill="#FFA000"/></g></svg>
