<svg width="512" height="512" viewBox="25 25 462 462" xmlns="http://www.w3.org/2000/svg"><g transform="translate(142 142)" fill="none" fill-rule="evenodd"><ellipse fill="#4CD7FF" cx="113.87" cy="114.453" rx="100.69" ry="100.661"/><path d="M113.87 215.114c55.61 0 100.69-45.068 100.69-100.661 0-55.594-45.08-100.662-100.69-100.662S13.18 58.86 13.18 114.453s45.08 100.66 100.69 100.66zm0 13C51.082 228.114.18 177.227.18 114.453.18 51.678 51.082.79 113.87.79s113.69 50.887 113.69 113.662c0 62.774-50.902 113.66-113.69 113.66z" fill="#02A9F1" fill-rule="nonzero"/><path d="M29.251 169.032c15.733 10.175 34.486 16.082 54.619 16.082 55.61 0 100.69-45.068 100.69-100.661 0-20.117-5.903-38.856-16.072-54.58 27.724 17.93 46.072 49.113 46.072 84.58 0 55.593-45.08 100.66-100.69 100.66-35.487 0-66.686-18.352-84.619-46.081z" fill="#02A9F1" opacity=".7"/></g></svg>