<svg width="512" height="512" viewBox="25 25 462 462" xmlns="http://www.w3.org/2000/svg"><g fill="none" fill-rule="evenodd"><path d="M225.87 146c-45.752 0-83.754 35.117-87.558 80.418l-.385 4.582h-9.924C96.516 231 71 256.517 71 288c0 31.485 25.518 57 57.003 57H325c38.108 0 69-30.892 69-69 0-38.108-30.892-69-69-69-3.636 0-7.234.28-10.775.836l-4.103.643-1.385-3.916C296.425 169.747 263.407 146 225.871 146z" fill="#FFF"/><path d="M225.87 156c-40.542 0-74.223 31.123-77.593 71.255L147.122 241h-19.119C102.039 241 81 262.04 81 288c0 25.962 21.04 47 47.003 47H325c32.585 0 59-26.415 59-59s-26.415-59-59-59c-3.117 0-6.198.24-9.226.715l-12.31 1.93-4.155-11.748C288.4 177.046 259.137 156 225.871 156zm0-15c40.431 0 74.827 25.83 87.581 61.896A74.52 74.52 0 0 1 325 202c40.87 0 74 33.13 74 74s-33.13 74-74 74H128.003C93.76 350 66 322.25 66 288c0-34.242 27.751-62 62.003-62h5.326c3.998-47.608 43.907-85 92.542-85z" fill="#0070B3" fill-rule="nonzero"/><path d="M321.459 193.644c-35.1 0-64.256 27.009-67.174 61.85l-.295 3.525h-7.614c-24.157 0-43.732 19.625-43.732 43.84 0 24.215 19.577 43.839 43.732 43.839h151.133c29.236 0 52.936-23.76 52.936-53.07 0-29.308-23.7-53.068-52.936-53.068-2.79 0-5.55.216-8.266.643l-3.148.494-1.062-3.011c-9.446-26.778-34.777-45.042-63.574-45.042z" fill="#FFF"/><path d="M321.904 205c-29.377 0-53.76 22.437-56.196 51.332l-1.16 13.74h-17.882c-18.06 0-32.666 14.546-32.666 32.464C214 320.455 228.609 335 246.666 335h151.445C421.26 335 440 316.338 440 293.35c0-22.99-18.74-41.651-41.889-41.651-2.22 0-4.412.17-6.565.506l-12.287 1.917-4.161-11.718C367.205 220.178 346.012 205 321.904 205zm0-15c31.081 0 57.524 19.774 67.329 47.384a57.552 57.552 0 0 1 8.878-.685c31.419 0 56.889 25.363 56.889 56.65C455 324.637 429.53 350 398.111 350H246.666C220.341 350 199 328.755 199 302.536c0-26.214 21.334-47.464 47.666-47.464h4.095C253.834 218.626 284.514 190 321.904 190z" fill="#0070B3" fill-rule="nonzero"/><path d="M241 439.014C241 454.47 228.464 467 213 467s-28-12.53-28-27.986c0-4.282.962-8.34 2.683-11.969l15.68-39.894c5.318-13.53 13.936-13.54 19.257 0l15.607 39.706A27.863 27.863 0 0 1 241 439.014zm87 0C328 454.47 315.464 467 300 467s-28-12.53-28-27.986c0-4.282.962-8.34 2.683-11.969l15.68-39.894c5.318-13.53 13.936-13.54 19.257 0l15.607 39.706A27.863 27.863 0 0 1 328 439.014z" fill="#0A95D7"/></g></svg>