<svg width="512" height="512" viewBox="25 25 462 462" xmlns="http://www.w3.org/2000/svg"><g fill="none" fill-rule="evenodd"><g fill-rule="nonzero"><path d="M133 259c-35.899 0-65-29.101-65-65s29.101-65 65-65 65 29.101 65 65-29.101 65-65 65z" fill="#4CD7FF"/><path d="M133 247c29.271 0 53-23.729 53-53s-23.729-53-53-53-53 23.729-53 53 23.729 53 53 53zm0 12c-35.899 0-65-29.101-65-65s29.101-65 65-65 65 29.101 65 65-29.101 65-65 65z" fill="#02A9F1"/></g><path d="M249.87 146c-45.752 0-83.754 35.117-87.558 80.418l-.385 4.582h-9.924C120.516 231 95 256.517 95 288c0 31.485 25.518 57 57.003 57H349c38.108 0 69-30.892 69-69 0-38.108-30.892-69-69-69-3.636 0-7.234.28-10.775.836l-4.103.643-1.385-3.916C320.425 169.747 287.407 146 249.871 146z" fill="#FFF"/><path d="M249.87 156c-40.542 0-74.223 31.123-77.593 71.255L171.122 241h-19.119C126.039 241 105 262.04 105 288c0 25.962 21.04 47 47.003 47H349c32.585 0 59-26.415 59-59s-26.415-59-59-59c-3.117 0-6.198.24-9.226.715l-12.31 1.93-4.155-11.748C312.4 177.046 283.137 156 249.871 156zm0-15c40.431 0 74.827 25.83 87.581 61.896A74.52 74.52 0 0 1 349 202c40.87 0 74 33.13 74 74s-33.13 74-74 74H152.003C117.76 350 90 322.25 90 288c0-34.242 27.751-62 62.003-62h5.326c3.998-47.608 43.907-85 92.542-85z" fill="#0070B3" fill-rule="nonzero"/><g fill="#0A95D7"><path d="M229 439.014C229 454.47 216.464 467 201 467s-28-12.53-28-27.986c0-4.282.962-8.34 2.683-11.969l15.68-39.894c5.318-13.53 13.936-13.54 19.257 0l15.607 39.706A27.863 27.863 0 0 1 229 439.014z"/><path d="M307 408l19.992-11.917c3.828-2.23 8.724-.906 10.934 2.956 2.21 3.861.899 8.8-2.93 11.03L315 422l19.996 11.932c3.829 2.23 5.14 7.168 2.93 11.03-2.21 3.861-7.106 5.185-10.934 2.955L307 436v23.088c0 4.37-3.582 7.912-8 7.912s-8-3.542-8-7.912V436l-20.992 11.917c-3.828 2.23-8.724.906-10.934-2.956-2.21-3.861-.899-8.8 2.93-11.03L282 422l-19.996-11.932c-3.829-2.23-5.14-7.168-2.93-11.03 2.21-3.861 7.106-5.185 10.934-2.955L291 408v-23.088c0-4.37 3.582-7.912 8-7.912s8 3.542 8 7.912V408z" fill-rule="nonzero"/></g></g></svg>
