<svg width="512" height="512" viewBox="25 25 462 462" xmlns="http://www.w3.org/2000/svg"><g fill="none" fill-rule="evenodd"><g fill-rule="nonzero"><path d="M133 259c-35.899 0-65-29.101-65-65s29.101-65 65-65 65 29.101 65 65-29.101 65-65 65z" fill="#4CD7FF"/><path d="M133 247c29.271 0 53-23.729 53-53s-23.729-53-53-53-53 23.729-53 53 23.729 53 53 53zm0 12c-35.899 0-65-29.101-65-65s29.101-65 65-65 65 29.101 65 65-29.101 65-65 65z" fill="#02A9F1"/></g><path d="M249.87 141c40.431 0 74.827 25.83 87.581 61.896A74.52 74.52 0 0 1 349 202c40.87 0 74 33.13 74 74s-33.13 74-74 74H152.003C117.76 350 90 322.25 90 288c0-34.242 27.751-62 62.003-62h5.326c3.998-47.608 43.907-85 92.542-85z" fill="#FFF"/><path d="M408 276c0-32.585-26.415-59-59-59-3.117 0-6.198.24-9.226.715l-12.31 1.93-4.155-11.748C312.4 177.046 283.137 156 249.871 156c-40.543 0-74.224 31.123-77.594 71.255L171.122 241h-19.119C126.039 241 105 262.04 105 288c0 25.962 21.04 47 47.003 47H159c3.909.274 7 3.526 7 7.5a7.5 7.5 0 0 1-7 7.484l-6.997.016C117.76 350 90 322.25 90 288c0-34.242 27.751-62 62.003-62h5.326c3.998-47.608 43.907-85 92.542-85 40.43 0 74.826 25.83 87.58 61.896A74.52 74.52 0 0 1 349 202c40.87 0 74 33.13 74 74 0 39.864-31.522 72.366-71 73.94-4.642-.04-8-3.398-8-7.54a7.5 7.5 0 0 1 7.5-7.5c31.81-1.576 56.5-27.433 56.5-58.9z" fill="#0070B3" fill-rule="nonzero"/><g fill="#0A95D7"><path d="M350.302 410.485l-7.569 4.369a5.822 5.822 0 1 1-5.82-10.085l7.44-4.295-7.44-4.295a5.822 5.822 0 1 1 5.82-10.084l7.57 4.368v-8.641a5.822 5.822 0 1 1 11.643 0v8.498l7.32-4.225a5.822 5.822 0 1 1 5.821 10.084l-7.44 4.295 7.44 4.295a5.822 5.822 0 1 1-5.82 10.085l-7.321-4.226v8.55a5.822 5.822 0 0 1-11.644 0v-8.693zm-66.935-48.88l-17.104 9.95c-3.273 1.904-7.457.773-9.346-2.525-1.889-3.298-.767-7.515 2.506-9.419l17.102-9.536-17.102-10.118c-3.273-1.904-4.395-6.12-2.506-9.419 1.89-3.298 6.073-4.429 9.346-2.525l17.104 9.95v-20.067c0-3.809 3.063-6.896 6.841-6.896 3.779 0 6.842 3.087 6.842 6.896v19.825l16.687-9.708c3.273-1.904 7.457-.773 9.346 2.525 1.889 3.298.767 7.515-2.506 9.42l-16.686 10.117 16.686 9.536c3.273 1.904 4.395 6.12 2.506 9.42-1.89 3.297-6.073 4.428-9.346 2.524l-16.687-9.708v19.257c0 3.809-3.063 6.896-6.842 6.896-3.778 0-6.841-3.087-6.841-6.896v-19.5zm.585 91.399l-15.595 9.046a6.221 6.221 0 0 1-8.52-2.295c-1.723-2.999-.7-6.833 2.284-8.563l15.593-8.67-15.593-9.197c-2.984-1.731-4.007-5.565-2.285-8.563a6.221 6.221 0 0 1 8.521-2.296l15.595 9.046V413.27c0-3.462 2.793-6.269 6.238-6.269 3.445 0 6.238 2.807 6.238 6.269v18.023l15.215-8.826a6.221 6.221 0 0 1 8.52 2.296c1.723 2.998.7 6.832-2.284 8.563l-15.214 9.197 15.214 8.67c2.984 1.73 4.007 5.564 2.285 8.563a6.221 6.221 0 0 1-8.521 2.295l-15.215-8.825v17.506c0 3.462-2.793 6.269-6.238 6.269-3.445 0-6.238-2.807-6.238-6.269v-17.727z" fill-rule="nonzero"/><path d="M167.416 403.806A16.247 16.247 0 0 1 169 410.83c0 8.93-7.163 16.17-16 16.17s-16-7.24-16-16.17c0-2.474.55-4.818 1.533-6.915l8.96-23.05c3.04-7.817 7.963-7.823 11.004 0l8.919 22.941zm64.109-48.488A24.676 24.676 0 0 1 234 366.124C234 379.862 222.807 391 209 391s-25-11.138-25-24.876c0-3.807.86-7.414 2.395-10.64l14.001-35.461c4.748-12.026 12.442-12.035 17.194 0l13.935 35.295zm-2.703 90.46a21.49 21.49 0 0 1 2.178 9.455c0 12.022-9.85 21.767-22 21.767s-22-9.745-22-21.767c0-3.33.756-6.487 2.108-9.31l12.32-31.028c4.179-10.522 10.95-10.53 15.13 0l12.264 30.883z"/></g></g></svg>
