<svg width="512" height="512" viewBox="25 25 462 462" xmlns="http://www.w3.org/2000/svg"><g fill="none" fill-rule="evenodd"><g fill-rule="nonzero"><path d="M135 285c-35.899 0-65-29.101-65-65s29.101-65 65-65 65 29.101 65 65-29.101 65-65 65z" fill="#4CD7FF"/><path d="M135 273c29.271 0 53-23.729 53-53s-23.729-53-53-53-53 23.729-53 53 23.729 53 53 53zm0 12c-35.899 0-65-29.101-65-65s29.101-65 65-65 65 29.101 65 65-29.101 65-65 65z" fill="#02A9F1"/></g><g transform="translate(66 141)"><path d="M159.87 10c-45.752 0-83.754 35.117-87.558 80.418L71.927 95h-9.924C30.516 95 5 120.517 5 152c0 31.485 25.518 57 57.003 57H259c38.108 0 69-30.892 69-69 0-38.108-30.892-69-69-69-3.636 0-7.234.28-10.775.836l-4.103.643-1.385-3.916C230.425 33.747 197.407 10 159.871 10z" fill="#FFF"/><path d="M259 209v-15c32.585 0 59-26.415 59-59s-26.415-59-59-59c-3.117 0-6.198.24-9.226.715l-12.31 1.93-4.155-11.748C222.4 36.046 193.137 15 159.871 15c-40.543 0-74.224 31.123-77.594 71.255L81.122 100H62.003C36.039 100 15 121.04 15 147c0 25.962 21.04 47 47.003 47H98v15H62.003C27.76 209 0 181.25 0 147c0-34.242 27.751-62 62.003-62h5.326c3.998-47.608 43.907-85 92.542-85 40.43 0 74.826 25.83 87.58 61.896A74.52 74.52 0 0 1 259 61c40.87 0 74 33.13 74 74s-33.13 74-74 74z" fill="#0070B3"/><path d="M255.815 56c-35.101 0-64.256 27.009-67.174 61.85l-.296 3.525h-7.613C156.575 121.375 137 141 137 165.214c0 24.215 19.577 43.84 43.732 43.84h151.133c29.236 0 52.936-23.76 52.936-53.07 0-29.308-23.7-53.068-52.936-53.068-2.79 0-5.55.216-8.266.643l-3.148.494-1.063-3.012C309.943 74.264 284.612 56 255.815 56z" fill="#FFF"/><path d="M282.169 209v-15h49.942C355.26 194 374 175.338 374 152.35c0-22.99-18.74-41.651-41.889-41.651-2.22 0-4.412.17-6.565.506l-12.287 1.917-4.161-11.718C301.196 79.152 280.082 64 256 64c-30.884 0-53.738 18.806-56.053 46.26L198.788 124H185c-14.218 0-30.042 12.397-33.547 25.015L137 145c5-18 25.928-36 48-36 3.074-36.446 33.61-60 71-60 31.081 0 57.428 19.774 67.233 47.384a57.552 57.552 0 0 1 8.878-.685c31.419 0 56.889 25.363 56.889 56.65C389 183.637 363.53 209 332.111 209H282.17zm0-15h49.942C355.26 194 374 175.338 374 152.35c0-22.99-18.74-41.651-41.889-41.651-2.22 0-4.412.17-6.565.506l-12.287 1.917-4.161-11.718C301.196 79.152 280.082 64 256 64c-30.884 0-53.738 18.806-56.053 46.26L198.788 124H185c-14.218 0-30.042 12.397-33.547 25.015L137 145c5-18 25.928-36 48-36 3.074-36.446 33.61-60 71-60 31.081 0 57.428 19.774 67.233 47.384a57.552 57.552 0 0 1 8.878-.685c31.419 0 56.889 25.363 56.889 56.65C389 183.637 363.53 209 332.111 209H282.17v-15z" fill="#0070B3" fill-rule="nonzero"/><circle fill="#0070B3" cx="281.5" cy="201.5" r="7.5"/><circle fill="#0070B3" cx="97.5" cy="201.5" r="7.5"/><circle fill="#0070B3" cx="144.5" cy="146.5" r="7.5"/></g><g fill="#0A95D7"><path d="M350.302 410.485l-7.569 4.369a5.822 5.822 0 1 1-5.82-10.085l7.44-4.295-7.44-4.295a5.822 5.822 0 1 1 5.82-10.084l7.57 4.368v-8.641a5.822 5.822 0 1 1 11.643 0v8.498l7.32-4.225a5.822 5.822 0 1 1 5.821 10.084l-7.44 4.295 7.44 4.295a5.822 5.822 0 1 1-5.82 10.085l-7.321-4.226v8.55a5.822 5.822 0 0 1-11.644 0v-8.693zm-66.935-47.88l-17.104 9.95c-3.273 1.904-7.457.773-9.346-2.525-1.889-3.298-.767-7.515 2.506-9.419l17.102-9.536-17.102-10.118c-3.273-1.904-4.395-6.12-2.506-9.419 1.89-3.298 6.073-4.429 9.346-2.525l17.104 9.95v-20.067c0-3.809 3.063-6.896 6.841-6.896 3.779 0 6.842 3.087 6.842 6.896v19.825l16.687-9.708c3.273-1.904 7.457-.773 9.346 2.525 1.889 3.298.767 7.515-2.506 9.42l-16.686 10.117 16.686 9.536c3.273 1.904 4.395 6.12 2.506 9.42-1.89 3.297-6.073 4.428-9.346 2.524l-16.687-9.708v19.257c0 3.809-3.063 6.896-6.842 6.896-3.778 0-6.841-3.087-6.841-6.896v-19.5zm.585 90.399l-15.595 9.046a6.221 6.221 0 0 1-8.52-2.295c-1.723-2.999-.7-6.833 2.284-8.563l15.593-8.67-15.593-9.197c-2.984-1.731-4.007-5.565-2.285-8.563a6.221 6.221 0 0 1 8.521-2.296l15.595 9.046V413.27c0-3.462 2.793-6.269 6.238-6.269 3.445 0 6.238 2.807 6.238 6.269v18.023l15.215-8.826a6.221 6.221 0 0 1 8.52 2.296c1.723 2.998.7 6.832-2.284 8.563l-15.214 9.197 15.214 8.67c2.984 1.73 4.007 5.564 2.285 8.563a6.221 6.221 0 0 1-8.521 2.295l-15.215-8.825v17.506c0 3.462-2.793 6.269-6.238 6.269-3.445 0-6.238-2.807-6.238-6.269v-17.727z" fill-rule="nonzero"/><path d="M167.416 403.806A16.247 16.247 0 0 1 169 410.83c0 8.93-7.163 16.17-16 16.17s-16-7.24-16-16.17c0-2.474.55-4.818 1.533-6.915l8.96-23.05c3.04-7.817 7.963-7.823 11.004 0l8.919 22.941zm64.109-47.488A24.676 24.676 0 0 1 234 367.124C234 380.862 222.807 392 209 392s-25-11.138-25-24.876c0-3.807.86-7.414 2.395-10.64l14.001-35.461c4.748-12.026 12.442-12.035 17.194 0l13.935 35.295zm-2.703 89.46a21.49 21.49 0 0 1 2.178 9.455c0 12.022-9.85 21.767-22 21.767s-22-9.745-22-21.767c0-3.33.756-6.487 2.108-9.31l12.32-31.028c4.179-10.522 10.95-10.53 15.13 0l12.264 30.883z"/></g></g></svg>
