<svg width="512" height="512" viewBox="25 25 462 462" xmlns="http://www.w3.org/2000/svg"><g fill="none" fill-rule="evenodd"><g fill-rule="nonzero"><path d="M133 259c-35.899 0-65-29.101-65-65s29.101-65 65-65 65 29.101 65 65-29.101 65-65 65z" fill="#4CD7FF"/><path d="M133 247c29.271 0 53-23.729 53-53s-23.729-53-53-53-53 23.729-53 53 23.729 53 53 53zm0 12c-35.899 0-65-29.101-65-65s29.101-65 65-65 65 29.101 65 65-29.101 65-65 65z" fill="#02A9F1"/></g><path d="M249.87 141c40.431 0 74.827 25.83 87.581 61.896A74.52 74.52 0 0 1 349 202c40.87 0 74 33.13 74 74s-33.13 74-74 74H152.003C117.76 350 90 322.25 90 288c0-34.242 27.751-62 62.003-62h5.326c3.998-47.608 43.907-85 92.542-85z" fill="#FFF"/><path d="M408 276c0-32.585-26.415-59-59-59-3.117 0-6.198.24-9.226.715l-12.31 1.93-4.155-11.748C312.4 177.046 283.137 156 249.871 156c-40.543 0-74.224 31.123-77.594 71.255L171.122 241h-19.119C126.039 241 105 262.04 105 288c0 25.962 21.04 47 47.003 47H209c3.909.274 7 3.526 7 7.5a7.5 7.5 0 0 1-7 7.484l-56.997.016C117.76 350 90 322.25 90 288c0-34.242 27.751-62 62.003-62h5.326c3.998-47.608 43.907-85 92.542-85 40.43 0 74.826 25.83 87.58 61.896A74.52 74.52 0 0 1 349 202c40.87 0 74 33.13 74 74 0 39.864-31.522 72.366-71 73.94-4.642-.04-8-3.398-8-7.54a7.5 7.5 0 0 1 7.5-7.5c31.81-1.576 56.5-27.433 56.5-58.9z" fill="#0070B3" fill-rule="nonzero"/><path fill="#FFBD00" d="M258 247l-29 103h50l-28 125 98-163h-53l29-65z"/><path d="M309.588 257h-44.015l-23.369 83h49.284l-17.226 76.902L331.32 322h-50.732l29-65zM279 350h-50l29-103h67l-29 65h53l-98 163 28-125z" fill="#FFA000" fill-rule="nonzero"/></g></svg>
