<svg width="512" height="512" viewBox="25 25 462 462" xmlns="http://www.w3.org/2000/svg"><g fill="none" fill-rule="evenodd"><path d="M132 242c-25.957 0-47-21.043-47-47s21.043-47 47-47 47 21.043 47 47-21.043 47-47 47z" fill="#FFBD00" fill-rule="nonzero"/><path d="M132 230c19.33 0 35-15.67 35-35s-15.67-35-35-35-35 15.67-35 35 15.67 35 35 35zm0 12c-25.957 0-47-21.043-47-47s21.043-47 47-47 47 21.043 47 47-21.043 47-47 47z" fill="#FFA000" fill-rule="nonzero"/><g transform="translate(25 187)" fill="#FFA000"><rect width="45" height="16" rx="8"/><rect x="169" width="45" height="16" rx="8"/></g><g transform="rotate(-45 345.229 71.322)" fill="#FFA000"><rect width="45" height="16" rx="8"/><rect x="169" width="45" height="16" rx="8"/></g><g transform="rotate(45 -106.229 131.678)" fill="#FFA000"><rect width="45" height="16" rx="8"/><rect x="169" width="45" height="16" rx="8"/></g><g transform="translate(124 88)" fill="#FFA000"><rect width="16" height="45" rx="8"/><rect y="170" width="16" height="45" rx="8"/></g><path d="M249.87 146c-45.752 0-83.754 35.117-87.558 80.418l-.385 4.582h-9.924C120.516 231 95 256.517 95 288c0 31.485 25.518 57 57.003 57H349c38.108 0 69-30.892 69-69 0-38.108-30.892-69-69-69-3.636 0-7.234.28-10.775.836l-4.103.643-1.385-3.916C320.425 169.747 287.407 146 249.871 146z" fill="#FFF"/><path d="M249.87 156c-40.542 0-74.223 31.123-77.593 71.255L171.122 241h-19.119C126.039 241 105 262.04 105 288c0 25.962 21.04 47 47.003 47H349c32.585 0 59-26.415 59-59s-26.415-59-59-59c-3.117 0-6.198.24-9.226.715l-12.31 1.93-4.155-11.748C312.4 177.046 283.137 156 249.871 156zm0-15c40.431 0 74.827 25.83 87.581 61.896A74.52 74.52 0 0 1 349 202c40.87 0 74 33.13 74 74s-33.13 74-74 74H152.003C117.76 350 90 322.25 90 288c0-34.242 27.751-62 62.003-62h5.326c3.998-47.608 43.907-85 92.542-85z" fill="#0070B3" fill-rule="nonzero"/><g fill="#0A95D7"><path d="M222 437.014C222 452.47 209.464 465 194 465s-28-12.53-28-27.986c0-4.282.962-8.34 2.683-11.969l15.68-39.894c5.318-13.53 13.936-13.54 19.257 0l15.607 39.706A27.863 27.863 0 0 1 222 437.014zm-76-20.671c0 10.304-8.507 18.657-19 18.657s-19-8.353-19-18.657c0-2.855.653-5.56 1.82-7.98l10.641-26.596c3.608-9.02 9.456-9.026 13.067 0l10.59 26.471a18.306 18.306 0 0 1 1.882 8.105z"/><path d="M380.667 395.667l13.328-7.945c2.552-1.486 5.816-.604 7.29 1.97 1.473 2.575.598 5.867-1.954 7.354L386 405l13.33 7.954c2.553 1.487 3.428 4.779 1.954 7.354-1.473 2.574-4.737 3.456-7.29 1.97l-13.327-7.945v15.392c0 2.913-2.388 5.275-5.334 5.275-2.945 0-5.333-2.362-5.333-5.275v-15.392l-13.995 7.945c-2.552 1.486-5.816.604-7.29-1.97-1.473-2.575-.598-5.867 1.954-7.354L364 405l-13.33-7.954c-2.553-1.487-3.428-4.779-1.954-7.354 1.473-2.574 4.737-3.456 7.29-1.97L370 395.667v-15.392c0-2.913 2.388-5.275 5.333-5.275 2.946 0 5.334 2.362 5.334 5.275v15.392zM296 406l19.992-11.917c3.828-2.23 8.724-.906 10.934 2.956 2.21 3.861.899 8.8-2.93 11.03L304 420l19.996 11.932c3.829 2.23 5.14 7.168 2.93 11.03-2.21 3.861-7.106 5.185-10.934 2.955L296 434v23.088c0 4.37-3.582 7.912-8 7.912s-8-3.542-8-7.912V434l-20.992 11.917c-3.828 2.23-8.724.906-10.934-2.956-2.21-3.861-.899-8.8 2.93-11.03L271 420l-19.996-11.932c-3.829-2.23-5.14-7.168-2.93-11.03 2.21-3.861 7.106-5.185 10.934-2.955L280 406v-23.088c0-4.37 3.582-7.912 8-7.912s8 3.542 8 7.912V406z" fill-rule="nonzero"/></g></g></svg>
