<svg width="512" height="512" viewBox="25 25 462 462" xmlns="http://www.w3.org/2000/svg"><g fill="none" fill-rule="evenodd"><path d="M137 268c-25.957 0-47-21.043-47-47s21.043-47 47-47 47 21.043 47 47-21.043 47-47 47z" fill="#FFBD00" fill-rule="nonzero"/><path d="M137 256c19.33 0 35-15.67 35-35s-15.67-35-35-35-35 15.67-35 35 15.67 35 35 35zm0 12c-25.957 0-47-21.043-47-47s21.043-47 47-47 47 21.043 47 47-21.043 47-47 47z" fill="#FFA000" fill-rule="nonzero"/><g transform="translate(30 213)" fill="#FFA000"><rect width="45" height="16" rx="8"/><rect x="169" width="45" height="16" rx="8"/></g><g transform="rotate(45 -135.114 150.713)" fill="#FFA000"><rect width="45" height="16" rx="8"/><rect x="169" width="45" height="16" rx="8"/></g><g transform="translate(129 114)" fill="#FFA000"><rect width="16" height="45" rx="8"/><rect y="170" width="16" height="45" rx="8"/></g><path d="M225.87 146c-45.752 0-83.754 35.117-87.558 80.418l-.385 4.582h-9.924C96.516 231 71 256.517 71 288c0 31.485 25.518 57 57.003 57H325c38.108 0 69-30.892 69-69 0-38.108-30.892-69-69-69-3.636 0-7.234.28-10.775.836l-4.103.643-1.385-3.916C296.425 169.747 263.407 146 225.871 146z" fill="#FFF"/><path d="M311.152 197.038l-13.768 5.953C285.15 174.7 257.232 156 225.87 156c-40.543 0-74.224 31.123-77.594 71.255L147.122 241h-19.119C102.039 241 81 262.04 81 288c0 25.962 21.04 47 47.003 47h116.145v15H128.003C93.76 350 66 322.25 66 288c0-34.242 27.751-62 62.003-62h5.326c3.998-47.608 43.907-85 92.542-85 38.205 0 71.023 23.065 85.28 56.038z" fill="#0070B3"/><g transform="translate(199 190)"><path d="M125.033 7c-34.279 0-62.75 27-65.601 61.83l-.289 3.522h-7.435C28.117 72.352 9 91.97 9 116.176 9 140.383 27.41 160 51 160h148c28.551 0 52-23.751 52-53.05 0-29.3-23.145-53.05-51.697-53.05-2.724 0-5.42.215-8.072.642l-3.075.494-1.037-3.01C177.895 25.258 153.156 7 125.033 7z" fill="#FFF"/><path d="M187.755 160v-15h11.356C222.26 145 241 126.338 241 103.35c0-22.99-18.74-41.651-41.889-41.651-2.22 0-4.412.17-6.565.506l-12.287 1.917-4.161-11.718C168.205 30.178 147.012 15 122.904 15c-29.377 0-53.76 22.437-56.196 51.332l-1.16 13.74H47.667C29.606 80.072 15 94.618 15 112.536 15 130.455 29.609 145 47.666 145h4.409v15h-4.409C21.341 160 0 138.755 0 112.536c0-26.214 21.334-47.464 47.666-47.464h4.095C54.834 28.626 85.514 0 122.904 0c31.081 0 57.524 19.774 67.329 47.384a57.552 57.552 0 0 1 8.878-.685c31.419 0 56.889 25.363 56.889 56.65C256 134.637 230.53 160 199.111 160h-11.356zm0 0v-15h11.356C222.26 145 241 126.338 241 103.35c0-22.99-18.74-41.651-41.889-41.651-2.22 0-4.412.17-6.565.506l-12.287 1.917-4.161-11.718C168.205 30.178 147.012 15 122.904 15c-29.377 0-53.76 22.437-56.196 51.332l-1.16 13.74H47.667C29.606 80.072 15 94.618 15 112.536 15 130.455 29.609 145 47.666 145h4.409v15h-4.409C21.341 160 0 138.755 0 112.536c0-26.214 21.334-47.464 47.666-47.464h4.095C54.834 28.626 85.514 0 122.904 0c31.081 0 57.524 19.774 67.329 47.384a57.552 57.552 0 0 1 8.878-.685c31.419 0 56.889 25.363 56.889 56.65C256 134.637 230.53 160 199.111 160h-11.356z" fill="#0070B3" fill-rule="nonzero"/><circle fill="#0070B3" cx="52.5" cy="152.5" r="7.5"/><circle fill="#0070B3" cx="187.5" cy="152.5" r="7.5"/></g><path fill="#FFBD00" d="M297 247l-29 103h50l-28 125 98-163h-53l29-65z"/><path d="M348.588 257h-44.015l-23.369 83h49.284l-17.226 76.902L370.32 322h-50.732l29-65zM318 350h-50l29-103h67l-29 65h53l-98 163 28-125z" fill="#FFA000" fill-rule="nonzero"/></g></svg>